<?xml version="1.0" standalone="no"?>
<!DOCTYPE svg PUBLIC "-//W3C//DTD SVG 20010904//EN"
 "http://www.w3.org/TR/2001/REC-SVG-20010904/DTD/svg10.dtd">
<svg version="1.0" xmlns="http://www.w3.org/2000/svg"
 width="943.000000pt" height="751.000000pt" viewBox="0 0 943.000000 751.000000"
 preserveAspectRatio="xMidYMid meet" fill="var(--icon)" stroke="var(--icon)">

<g transform="translate(0.000000,751.000000) scale(0.100000,-0.100000)">
<path fill="var(--icon)" d="M3010 7393 c-1206 -416 -1826 -636 -1915 -681 -27 -13 -81 -45 -120
-70 -38 -25 -142 -89 -230 -142 -569 -345 -710 -437 -729 -475 -16 -32 -17
-43 -7 -76 15 -50 44 -69 105 -69 40 0 111 25 375 131 179 72 364 149 411 170
50 22 117 43 160 50 84 13 311 6 372 -11 51 -15 107 -61 310 -258 212 -206
264 -245 404 -306 144 -63 230 -83 399 -90 186 -9 290 4 582 71 147 33 253 53
268 49 57 -15 42 -89 -51 -242 -73 -121 -92 -146 -244 -318 -149 -170 -251
-256 -378 -319 -105 -52 -105 -52 -216 -55 -121 -4 -390 30 -556 70 -56 13
-133 22 -226 25 -126 5 -145 3 -186 -15 -59 -26 -82 -60 -75 -110 9 -54 123
-159 261 -240 313 -184 610 -262 952 -249 129 5 167 10 282 41 74 20 153 46
175 58 52 26 147 101 212 167 50 52 71 61 93 39 9 -9 12 -456 12 -1950 0
-2016 4 -2220 41 -2368 35 -138 100 -210 187 -210 62 0 111 35 166 119 73 111
104 184 139 326 l21 90 6 2935 c3 1614 9 2941 13 2948 12 19 65 15 83 -7 9
-10 407 -1078 885 -2372 478 -1295 877 -2371 886 -2392 19 -45 43 -60 78 -51
34 8 42 26 66 146 20 102 125 457 194 656 19 56 35 108 35 115 0 6 -399 1116
-887 2466 l-888 2453 -57 29 -57 29 -523 -1 -523 0 -305 -106z m379 -303 c21
-11 118 -153 154 -225 32 -66 47 -138 47 -234 0 -166 -29 -239 -140 -347 -248
-242 -521 -340 -872 -313 -170 12 -251 31 -328 77 -83 49 -142 108 -282 284
-122 151 -135 179 -100 211 25 22 1232 505 1347 538 67 20 147 24 174 9z"/>
<path fill="var(--icon)" d="M8280 3744 c-14 -2 -59 -9 -100 -15 -195 -28 -510 -114 -657 -180
-139 -62 -326 -207 -392 -303 -74 -107 -211 -355 -268 -485 -76 -172 -109
-277 -162 -508 -58 -251 -70 -319 -86 -505 -35 -401 -32 -482 31 -813 59 -306
121 -459 281 -686 96 -138 154 -192 224 -213 99 -30 159 -14 208 55 44 60 52
97 36 172 -18 84 -133 463 -202 662 -30 88 -61 183 -69 210 -29 103 -46 305
-45 520 1 192 4 224 31 358 33 164 51 232 85 327 13 36 29 83 34 106 16 60 72
77 107 33 14 -18 143 -300 200 -437 53 -129 77 -164 179 -260 150 -141 407
-273 762 -392 233 -78 315 -124 384 -216 46 -60 63 -107 114 -312 31 -126 45
-164 77 -212 55 -84 105 -124 182 -150 82 -27 124 -22 160 21 24 28 26 39 26
117 0 164 -35 441 -114 910 -19 111 -42 273 -51 360 -36 344 -122 751 -251
1195 -42 144 -89 312 -103 372 -43 177 -75 218 -197 250 -57 16 -365 30 -424
19z m155 -353 c71 -33 81 -52 145 -277 89 -320 133 -491 210 -833 66 -291 71
-318 60 -360 -26 -102 -57 -133 -147 -145 -64 -9 -469 32 -507 51 -108 55
-155 111 -251 301 -60 118 -68 142 -114 342 -72 315 -81 365 -83 475 -3 91 0
105 24 158 72 154 177 222 438 283 118 28 173 29 225 5z"/>
</g>
</svg>
